<svg viewBox="0 0 11 11" fill="none" xmlns="http://www.w3.org/2000/svg">
<g opacity="0.2">
<path fill-rule="evenodd" clip-rule="evenodd" d="M3.3125 4.04419V2.6875C3.3125 1.99714 3.87214 1.4375 4.5625 1.4375H6.4375C7.12786 1.4375 7.6875 1.99714 7.6875 2.6875V4.04419C8.41575 4.30159 8.9375 4.99611 8.9375 5.8125V7.6875C8.9375 8.72303 8.09803 9.5625 7.0625 9.5625H3.9375C2.90197 9.5625 2.0625 8.72303 2.0625 7.6875V5.8125C2.0625 4.99611 2.58425 4.30159 3.3125 4.04419ZM4.5625 2.0625H6.4375C6.78268 2.0625 7.0625 2.34232 7.0625 2.6875V3.9375H3.9375V2.6875C3.9375 2.34232 4.21732 2.0625 4.5625 2.0625ZM5.93406 7.04529C5.8963 6.85651 5.96688 6.66754 6.03623 6.48189C6.05701 6.42624 6.07769 6.37088 6.0953 6.31591C6.11459 6.25573 6.125 6.19158 6.125 6.125C6.125 5.77982 5.84518 5.5 5.5 5.5C5.15482 5.5 4.875 5.77982 4.875 6.125C4.875 6.19158 4.88541 6.25573 4.9047 6.31591C4.92231 6.37088 4.94298 6.42623 4.96377 6.48189C5.03311 6.66753 5.1037 6.85651 5.06594 7.04529L4.99757 7.38714C4.93416 7.70419 5.17667 8 5.5 8C5.82333 8 6.06584 7.70419 6.00243 7.38714L5.93406 7.04529Z" fill="#2A2A2A"/>
</g>
</svg>
